<?xml version="1.0" encoding="UTF-8" standalone="no"?>
<!-- Created with Inkscape (http://www.inkscape.org/) -->

<svg
   width="210mm"
   height="297mm"
   viewBox="0 0 210 297"
   version="1.1"
   id="svg5"
   xml:space="preserve"
   inkscape:version="1.2.2 (b0a8486541, 2022-12-01)"
   sodipodi:docname="dna.svg"
   xmlns:inkscape="http://www.inkscape.org/namespaces/inkscape"
   xmlns:sodipodi="http://sodipodi.sourceforge.net/DTD/sodipodi-0.dtd"
   xmlns="http://www.w3.org/2000/svg"
   xmlns:svg="http://www.w3.org/2000/svg"><sodipodi:namedview
     id="namedview7"
     pagecolor="#ffffff"
     bordercolor="#666666"
     borderopacity="1.0"
     inkscape:showpageshadow="2"
     inkscape:pageopacity="0.0"
     inkscape:pagecheckerboard="0"
     inkscape:deskcolor="#d1d1d1"
     inkscape:document-units="mm"
     showgrid="false"
     inkscape:zoom="0.2973261"
     inkscape:cx="366.60085"
     inkscape:cy="1040.9446"
     inkscape:window-width="1920"
     inkscape:window-height="1017"
     inkscape:window-x="0"
     inkscape:window-y="0"
     inkscape:window-maximized="1"
     inkscape:current-layer="layer1" /><defs
     id="defs2" /><g
     inkscape:label="Layer 1"
     inkscape:groupmode="layer"
     id="layer1"><path
       style="fill:#000000;stroke-width:0.264583"
       d="m 9.152711,276.87026 c -1.47518,-0.52692 -2.73315,-1.70088 -3.5086,-3.2743 -0.58165,-1.18017 -0.5918,-1.37081 -0.55697,-10.4625 0.0352,-9.19969 0.3235,-13.84715 1.27185,-20.50521 l 1.10424,-7.14375 c 0.8266,-4.31003 1.77597,-8.48693 2.64605,-11.64167 0.89414,-3.24201 3.26378,-10.47039 3.94653,-12.03854 0.19007,-0.43656 0.96663,-2.2225 1.72568,-3.96875 2.10975,-4.85358 4.2803,-8.8255 7.08481,-12.96458 3.55349,-5.24446 6.16966,-8.36816 11.19051,-13.36146 2.7997,-2.78433 4.50713,-4.35074 9.22671,-8.4646 4.30896,-3.75596 17.00162,-12.91908 21.03485,-15.18556 0.43657,-0.24532 1.32954,-0.79295 1.98438,-1.21694 1.16565,-0.75473 4.24627,-2.57757 6.61458,-3.91391 0.65485,-0.36951 1.60735,-0.93229 2.11667,-1.25062 2.26906,-1.41821 4.58049,-1.59925 6.76605,-0.52995 1.62377,0.79443 2.54799,1.90364 3.16954,3.80393 0.53567,1.63772 0.40603,2.74912 -0.54817,4.69943 -0.75424,1.54162 -0.14025,1.10306 -8.99055,6.42185 -6.98753,4.19932 -14.99143,9.55625 -17.22428,11.52804 l -1.03197,0.9113 38.70382,0.011 c 42.358859,0.0121 39.491389,-0.0988 41.427819,1.60142 1.46924,1.29001 2.09769,2.88032 1.97766,5.00453 -0.11873,2.10122 -1.0358,3.66819 -2.87264,4.90839 l -1.18458,0.79981 -46.319089,0.069 -46.31908,0.0691 -1.98654,2.04762 c -4.7952,4.94266 -8.50326,10.26577 -11.83976,16.99658 l -1.63945,3.30729 68.60404,0.13229 c 66.211719,0.12768 68.643409,0.1495 69.732849,0.62577 0.62084,0.27142 1.58215,1.00851 2.13624,1.63799 2.2349,2.53898 2.13877,6.06343 -0.2327,8.53142 -1.88634,1.96312 -1.14273,1.90482 -24.29653,1.90482 H 106.39535 57.191401 c -11.30349,0 -32.80662,-0.18203 -33.91048,0 -0.41883,0 -0.66649,0.24047 -0.88079,0.8552 -2.09226,7.06721 -3.65302,14.17908 -3.98697,21.39406 0,0.14299 16.46558,0.24033 40.65455,0.24033 h 47.315629 35.90758 c 32.46889,0 30.79564,-0.0902 32.64584,1.75998 1.37895,1.37895 1.96182,2.73584 1.96182,4.56702 0,2.54114 -1.15312,4.46469 -3.34877,5.58618 l -1.28144,0.65452 -23.26757,0.0718 -42.59238,0.0605 -53.972519,-0.003 c -19.02595,-0.003 -34.71944,0.0743 -34.87442,0.17008 -0.19196,0.11864 -0.23504,1.81599 -0.13515,5.32487 0.11348,3.98616 0.0632,5.42803 -0.22245,6.3773 -0.40906,1.35946 -1.71552,2.93119 -2.97996,3.58506 -1.24567,0.64415 -3.658,0.77062 -5.07118,0.26585 z m 189.146679,0.0695 c -1.50334,-0.56255 -2.55278,-1.43467 -3.34201,-2.77722 l -0.72862,-1.2395 -0.19665,-9.65729 c -0.22045,-10.82553 -0.27549,-11.84783 -0.86907,-16.13958 -1.30271,-9.41909 -2.44946,-15.41304 -3.69482,-19.31251 -0.19623,-0.61444 -0.17748,-0.63247 0.27503,-0.26458 0.39683,0.32262 0.38258,0.24968 -0.0779,-0.39895 -0.30995,-0.43657 -0.70149,-1.32953 -0.87009,-1.98438 -0.39991,-1.55325 -2.05343,-6.52362 -2.50858,-7.54062 -0.19537,-0.43657 -0.67509,-1.62719 -1.06603,-2.64584 -0.68112,-1.77475 -3.47885,-7.54204 -4.51801,-9.31351 -3.25872,-5.55519 -6.41012,-9.55602 -11.72739,-14.88835 -4.99979,-5.01396 -5.51594,-5.48938 -9.13857,-8.41761 -1.31173,-1.06029 -2.85384,-2.31045 -3.42691,-2.77812 -0.57307,-0.46768 -1.70417,-1.31981 -2.51355,-1.89363 -0.80937,-0.57382 -1.53112,-1.12369 -1.60388,-1.22193 -0.68228,-0.92125 -18.50934,-12.37125 -21.03438,-13.51 -0.29104,-0.13125 -0.88635,-0.45554 -1.32292,-0.72064 -1.42594,-0.86588 -3.38304,-1.9314 -6.74687,-3.67325 -7.5239,-4.07203 -16.29471,-7.69968 -24.890279,-11.38979 -4.77108,-2.04406 -16.87253,-7.96686 -19.55972,-9.5731 -0.21828,-0.13048 -2.36141,-1.3302 -4.7625,-2.66605 -3.84863,-2.14119 -6.36598,-3.66565 -8.78669,-5.32104 -0.39429,-0.26963 -0.78341,-0.49024 -0.86472,-0.49024 -0.58297,0 -13.79968,-9.20903 -16.68768,-11.6275 -0.44374,-0.37159 -1.32943,-1.09234 -1.96822,-1.60167 -0.63878,-0.50932 -1.65913,-1.34276 -2.26744,-1.85208 -0.60831,-0.50932 -1.38949,-1.1586 -1.73595,-1.44282 -1.28936,-1.05778 -6.48439,-5.89605 -8.25199,-7.68531 -4.11326,-4.16367 -8.00873,-8.829247 -10.27235,-12.303123 -2.36227,-3.625271 -2.52475,-3.894659 -4.06942,-6.746875 -2.81829,-5.203958 -4.99054,-10.25779 -6.98809,-16.258114 -1.33973,-4.02435 -3.15587,-10.657915 -3.6981,-13.507512 -0.82389,-4.565855 -1.65878,-9.084517 -2.35141,-14.213637 -0.66412,-4.516504 -0.95966,-10.138712 -0.97051,-18.462406 -0.011,-8.393631 0.0106,-8.77729 0.55607,-9.921875 1.13218,-2.375472 3.09968,-3.6878292 5.54462,-3.698357 2.48933,-0.010716 4.64237,1.214845 5.73673,3.265496 0.55098,1.032465 0.57914,1.363506 0.49811,5.856819 -0.13313,7.382714 0.34546,14.874709 1.53765,24.070819 0.7177,5.536059 2.36877,14.12153 2.92693,15.219807 0.11093,0.218281 0.26675,0.754063 0.34627,1.190625 0.9389,5.154787 6.15889,18.038107 9.23193,22.78507 0.46003,0.710608 1.0665,1.708733 1.34772,2.218056 1.26209,2.285814 5.41087,7.314676 9.17195,11.117604 4.98513,5.040593 7.31373,7.140983 12.41154,11.195143 1.25006,0.99415 2.50545,1.99601 2.78975,2.22637 0.2843,0.23035 1.83211,1.34966 3.43958,2.48734 1.60747,1.13769 3.04174,2.16535 3.18726,2.28371 0.23705,0.1928 2.33591,1.57018 7.54062,4.94856 0.94589,0.61398 2.3017,1.46154 3.01292,1.88349 0.71121,0.42194 1.66371,0.98838 2.11666,1.25877 4.42417,2.64095 8.5917,4.91478 14.68763,8.01366 2.98545,1.51904 5.87951,2.89041 8.74385,4.21374 2.408789,1.10187 4.855869,2.22062 5.437949,2.48612 0.58209,0.2655 1.35599,0.57053 1.7198,0.67784 0.3638,0.10731 1.37583,0.51616 2.24895,0.90856 0.87313,0.3924 2.54,1.11133 3.70417,1.59762 8.97385,3.7485 24.33907,11.81958 33.30189,17.49287 2.27622,1.44081 8.24321,5.36908 8.36999,5.51025 0.0728,0.081 1.08479,0.79909 2.24895,1.59572 1.98192,1.35622 5.0556,3.5867 5.95313,4.32002 0.21828,0.17834 0.92972,0.73934 1.58097,1.24666 0.65125,0.50732 1.31824,1.04147 1.48219,1.18699 0.16396,0.14552 0.87781,0.74083 1.58633,1.32292 7.32738,6.01975 14.0629,12.77094 18.34588,18.38854 4.07496,5.34478 7.05904,10.50455 10.48171,18.12396 3.48804,7.76493 6.98015,20.28149 8.45224,30.29479 1.21853,9.81839 2.36692,20.39019 1.80657,30.20997 -0.22548,3.33131 -0.30739,3.7203 -1.0292,4.8878 -1.48027,2.3943 -4.77121,3.59326 -7.28293,2.65332 z m -66.5123,-140.09038 c -2.96264,-0.30779 -5.40515,-3.02459 -5.41815,-6.0266 -0.0128,-2.95416 1.1247,-4.60906 4.44253,-6.46328 4.67076,-2.61032 17.60705,-10.79829 19.01037,-12.03253 0.16922,-0.14883 1.29554,-0.98497 2.50294,-1.8581 l 2.19527,-1.5875 -38.88315,-0.13229 c -43.659779,-0.14854 -39.602329,0.0625 -41.503479,-2.15858 -2.80029,-3.27151 -1.50633,-8.172785 2.61194,-9.893505 0.78909,-0.329703 7.31618,-0.383331 46.654999,-0.383331 h 45.73757 l 2.35895,-2.55751 c 2.44167,-2.647178 5.46535,-6.35521 5.97994,-7.333354 0.16208,-0.308099 0.37434,-0.619709 0.47168,-0.69247 0.36883,-0.275701 3.4424,-5.554779 4.74272,-8.145965 l 1.3559,-2.701952 h -68.48744 c -73.643939,0 -69.789439,0.07067 -71.735709,-1.315198 -0.45168,-0.321623 -1.17356,-1.199074 -1.60418,-1.94989 -0.63248,-1.102767 -0.78343,-1.676715 -0.78543,-2.986455 -0.004,-2.630284 0.93671,-4.294931 3.17252,-5.613823 l 1.19062,-0.702342 23.10485,-0.07315 37.120469,-0.05915 c 7.47639,0.005 29.13475,0.0071 48.1297,0.0045 l 34.53626,-0.0045 0.35704,-0.859896 c 0.19636,-0.472942 0.33784,-1.002056 0.31439,-1.175805 -0.0234,-0.173752 0.24876,-1.364377 0.60491,-2.645834 0.74811,-2.691773 2.12777,-9.767126 2.54383,-13.045549 0.15697,-1.236927 0.33728,-2.57638 0.40068,-2.976562 l 0.11527,-0.727604 h -39.5896 l -76.965249,-0.0642 -37.02255,-0.06809 -1.05833,-0.623507 c -1.46915,-0.865534 -1.69658,-1.074615 -2.48338,-2.283026 -0.60874,-0.934918 -0.69162,-1.332759 -0.69162,-3.319711 0,-2.161215 0.0398,-2.312887 0.93292,-3.556288 0.59876,-0.833573 1.40432,-1.541309 2.24896,-1.97584 l 1.31604,-0.677045 22.72012,-0.0719 43.442489,-0.06045 50.14508,1.52e-4 c 16.21275,0.0024 31.41249,0.0035 33.77721,0.0021 l 4.29948,-0.0022 0.002,-6.548437 c 8e-4,-3.915722 0.11788,-6.973928 0.291,-7.606771 0.37142,-1.35767 2.46585,-3.43136 3.8554,-3.817213 3.08718,-0.8572633 6.31605,0.40005 7.64207,2.975811 0.99914,1.940822 1.09989,12.235215 0.23219,23.727861 -0.60995,5.423958 -1.39372,10.847916 -2.24186,16.271874 -2.4425,11.869447 -4.86971,19.477834 -9.15026,28.682577 -2.23254,4.800786 -7.49331,13.232308 -10.02272,16.063582 -0.14552,0.162889 -0.79507,0.936795 -1.44344,1.719792 -2.98112,3.600134 -11.7252,11.930784 -16.82109,16.025794 -4.87529,3.91774 -8.17334,6.34765 -13.35318,9.83826 -5.57554,3.75726 -14.15967,8.99552 -17.5539,10.71185 -1.15977,0.58645 -2.58715,0.87354 -3.74506,0.75324 z"
       id="path302"
       sodipodi:nodetypes="cssccssssssssssssssscsssscccsscsssscccccccccsssccccssssccsscssssssssssssssssccssssssssssssccccssssssssssssssssccsssssssssscssccsssssssscsssscsssscssssscccccsssssccccssssscccccccsssccssssssss"
       inkscape:export-filename="../Projects/artificial_life/dna_logo32x32.png"
       inkscape:export-xdpi="96"
       inkscape:export-ydpi="96" /></g></svg>
